<svg viewBox="0 0 800 800" xmlns="http://www.w3.org/2000/svg"><path d="M388.6222706258184,129.06997344366948 L-52.89550337046842,370.6835774338784 M388.6222706258184,129.06997344366948 L388.6222706258184,126.88179404264673 M-52.99320590952493,368.43863206177855 L388.6222706258184,126.88179404264673 M-52.89550337046842,370.6835774338784 L-52.99320590952493,368.43863206177855 M-52.89550337046842,370.6835774338784 L-56.56787431656721,372.881715951528 M-56.56787431656721,372.881715951528 L-59.88382518665196,375.2604788841723 M-59.88382518665196,375.2604788841723 L-62.81378138999082,377.7992395402739 M-62.81378138999082,377.7992395402739 L-65.33134341264645,380.47591113285523 M-65.33134341264645,380.47591113285523 L-67.41368946887462,383.2671231371372 M-67.41368946887462,383.2671231371372 L-69.0417226811964,386.14845121574405 M-69.0417226811964,386.14845121574405 L-70.20028960204144,389.09455606275816 M-70.20028960204144,389.09455606275816 L-70.87832847894367,392.07947965284524 M-70.87832847894367,392.07947965284524 L-71.06893372384411,395.0767999885764 M-71.06893372384411,395.0767999885764 L-70.7695525736014,398.0599099667708 M-70.7695525736014,398.0599099667708 L-69.98201252878397,401.0022235274185 M-69.98201252878397,401.0022235274185 L-68.71246376828395,403.87743774017605 M-68.71246376828395,403.87743774017605 L-66.97146401560099,406.65974759866515 M-66.97146401560099,406.65974759866515 L-64.77376722711335,409.3241165013012 M-64.77376722711335,409.3241165013012 L-62.13838400516494,411.84647274611217 M-62.13838400516494,411.84647274611217 L-59.088314997281714,414.20397808381693 M-59.088314997281714,414.20397808381693 L-56.83762635257813,415.67341365898085 M-56.83762635257813,415.67341365898085 L347.58465167980523,662.7649979333527 M347.58465167980523,662.7649979333527 L353.0320491927537,665.6976008263762 M353.0320491927537,665.6976008263762 L357.5993438717172,667.6518970611467 M357.5993438717172,667.6518970611467 L362.4591497300977,669.3301987327571 M362.4591497300977,669.3301987327571 L367.5659094216262,670.716391320188 M367.5659094216262,670.716391320188 L372.8715763662227,671.7971712301344 M372.8715763662227,671.7971712301344 L378.3261008722727,672.5621344914108 M378.3261008722727,672.5621344914108 L383.87798539936216,673.0038995069335 M383.87798539936216,673.0038995069335 L389.4747510305325,673.1182059573532 M389.4747510305325,673.1182059573532 L395.06343890164953,672.9039701858683 M395.06343890164953,672.9039701858683 L400.5912229977579,672.3632489477077 M400.5912229977579,672.3632489477077 L406.0058344191955,671.5012548150911 M406.0058344191955,671.5012548150911 L411.2561716725217,670.3262895900083 M411.2561716725217,670.3262895900083 L416.2927656893549,668.8496439036285 M416.2927656893549,668.8496439036285 L421.06823939411794,667.0855112958833 M421.06823939411794,667.0855112958833 L425.53786956789975,665.0508125207735 M425.53786956789975,665.0508125207735 L429.6598895718317,662.7649979333527 M871.0639172964161,393.0785181325961 L429.6598895718317,662.7649979333527 M388.6222706258184,129.06997344366948 L871.0639172964161,393.0785181325961 M386.75059789198923,194.5703254225222 L127.11553205815221,338.5606959084589 M395.48517828971745,194.26550288759682 L394.12045206601516,193.8126682346226 M394.12045206601516,193.8126682346226 L392.6007707490082,193.55342765839328 M392.6007707490082,193.55342765839328 L391.0137429716288,193.50267548538633 M391.0137429716288,193.50267548538633 L389.450768784321,193.66334418715448 M389.450768784321,193.66334418715448 L388.00188579901965,194.02617843876368 M388.00188579901965,194.02617843876368 L386.75059789198923,194.5703254225222 M396.10896156113495,194.57032542252227 L395.48517828971745,194.26550288759682 M655.9102931532937,338.560695908459 L396.10896156113495,194.57032542252227 M656.2128319661063,338.7389012039571 L655.9102931532937,338.560695908459 M656.2044040935746,344.0698714979023 L657.0889114376473,343.41674734196084 M657.0889114376473,343.41674734196084 L657.7025907680475,342.66655759038986 M657.7025907680475,342.66655759038986 L658.0171149032801,341.85406444239266 M658.0171149032801,341.85406444239266 L658.0181463765907,341.0168581582878 M658.0181463765907,341.0168581582878 L657.7057516386872,340.19365299655857 M657.7057516386872,340.19365299655857 L657.0945185343203,339.42247853822613 M657.0945185343203,339.42247853822613 L656.2128319661063,338.7389012039571 M396.57487405190085,497.1893651303065 L656.2044040935746,344.0698714979023 M387.2961770714299,497.5333610911609 L388.745488663586,498.0445325694716 M388.745488663586,498.0445325694716 L390.36011966188636,498.3372635709551 M390.36011966188636,498.3372635709551 L392.0466578685655,498.3945753144462 M392.0466578685655,498.3945753144462 L393.70751696517215,498.213143900214 M393.70751696517215,498.213143900214 L395.24658469922025,497.80349251150903 M395.24658469922025,497.80349251150903 L396.57487405190085,497.1893651303065 M386.6341197692978,497.1893651303065 L387.2961770714299,497.5333610911609 M126.82778256589029,344.0698714979023 L386.6341197692978,497.1893651303065 M126.54379820202018,343.8912865292664 L126.82778256589029,344.0698714979023 M127.11553205815221,338.5606959084589 L126.16287372302696,339.21255908827015 M126.16287372302696,339.21255908827015 L125.47011608114423,339.96171069951185 M125.47011608114423,339.96171069951185 L125.06934910074426,340.7735901354159 M125.06934910074426,340.7735901354159 L124.9792629047821,341.61071509803395 M124.9792629047821,341.61071509803395 L125.20417395107529,342.43438619713777 M125.20417395107529,342.43438619713777 L125.7337916441162,343.20649288464995 M125.7337916441162,343.20649288464995 L126.54379820202018,343.8912865292664 M-12.178209532762253,395.3289657083676 L-11.31093563130554,394.72480449442173 M-11.31093563130554,394.72480449442173 L-10.710400826923888,394.0251150444995 M-10.710400826923888,394.0251150444995 L-10.411449245892129,393.2706016478227 M-10.411449245892129,393.2706016478227 L-10.431292656299092,392.50515181038116 M-10.431292656299092,392.50515181038116 L-10.768661090012245,391.7732530785369 M-10.768661090012245,391.7732530785369 L-11.40380060035585,391.11737894885573 M-11.40380060035585,391.11737894885573 L-12.299757641705867,390.5755747477895 M-12.299757641705867,390.5755747477895 L-13.40445208701027,390.17924881048225 M-13.40445208701027,390.17924881048225 L-14.65371302119263,389.9513612327215 M-14.65371302119263,389.9513612327215 L-15.975092530422842,389.90511599114814 M-15.975092530422842,389.90511599114814 L-17.291899919926664,390.0431857403253 M-17.291899919926664,390.0431857403253 L-18.52776940246474,390.3575689393058 M-18.52776940246474,390.3575689393058 L-19.610953288928442,390.8300700659989 M-19.610953288928442,390.8300700659989 L-20.47857934684305,391.433302057066 M-20.47857934684305,391.433302057066 L-21.080141924000827,392.13228374638294 M-21.080141924000827,392.13228374638294 L-21.380630459028453,392.88644919607174 M-21.380630459028453,392.88644919607174 L-21.362441811950475,393.652014392282 M-21.362441811950475,393.652014392282 L-21.026481005910114,394.38445677276445 M-21.026481005910114,394.38445677276445 L-20.39216538692648,395.04118688977536 M-20.39216538692648,395.04118688977536 L-19.49628483592045,395.58394811910586 M-19.49628483592045,395.58394811910586 L-18.39090195621077,395.98111287547437 M-18.39090195621077,395.98111287547437 L-17.140320296887808,396.209544114907 M-17.140320296887808,396.209544114907 L-15.817304463248604,396.2559047095978 M-15.817304463248604,396.2559047095978 L-14.49890587246017,396.11750418195624 M-14.49890587246017,396.11750418195624 L-13.261894110550031,395.802396058426 M-13.261894110550031,395.802396058426 L-12.178209532762253,395.3289657083676 M85.49795232043658,454.4504521123755 L86.3635680844136,453.8321054219114 M86.3635680844136,453.8321054219114 L86.95744953137432,453.1159801987421 M86.95744953137432,453.1159801987421 L87.24517035483751,452.34375492840843 M87.24517035483751,452.34375492840843 L87.21015429629068,451.56033477837684 M87.21015429629068,451.56033477837684 L86.85456344020821,450.81125599290306 M86.85456344020821,450.81125599290306 L86.19920541902883,450.1399841156299 M86.19920541902883,450.1399841156299 L85.28222280813395,449.5854653072964 M85.28222280813395,449.5854653072964 L84.15691628823947,449.17984398836967 M84.15691628823947,449.17984398836967 L82.88863083867545,448.94660498990015 M82.88863083867545,448.94660498990015 L81.55093741987884,448.8992747041548 M81.55093741987884,448.8992747041548 L80.22146443422565,449.0405839900983 M80.22146443422565,449.0405839900983 L78.97731071249154,449.3623439119808 M78.97731071249154,449.3623439119808 L77.89070481663686,449.84593273595124 M77.89070481663686,449.84593273595124 L77.02471790306583,450.4633216822839 M77.02471790306583,450.4633216822839 L76.42976315590408,451.17870957763483 M76.42976315590408,451.17870957763483 L76.14046985704942,451.95057906989246 M76.14046985704942,451.95057906989246 L76.17379457760939,452.7341186636389 M76.17379457760939,452.7341186636389 L76.52796273757804,453.48376474733567 M76.52796273757804,453.48376474733567 L77.18247973756411,454.15591404818673 M77.18247973756411,454.15591404818673 L78.09940294850765,454.71142378507574 M78.09940294850765,454.71142378507574 L79.22544529811995,455.11792252102657 M79.22544529811995,455.11792252102657 L80.49508595784255,455.3517200532818 M80.49508595784255,455.3517200532818 L81.83445639581498,455.39916977831786 M81.83445639581498,455.39916977831786 L83.16554398394726,455.2575134976337 M83.16554398394726,455.2575134976337 L84.41085992777505,454.93500747108055 M84.41085992777505,454.93500747108055 L85.49795232043658,454.4504521123755 M796.8554945405654,390.830070065999 L795.7723106541016,390.3575689393059 M795.7723106541016,390.3575689393059 L794.5364411715634,390.0431857403254 M794.5364411715634,390.0431857403254 L793.2196337820596,389.90511599114814 M793.2196337820596,389.90511599114814 L791.8982542728295,389.9513612327216 M791.8982542728295,389.9513612327216 L790.6489933386472,390.1792488104823 M790.6489933386472,390.1792488104823 L789.5442988933428,390.5755747477895 M789.5442988933428,390.5755747477895 L788.6483418519927,391.11737894885573 M788.6483418519927,391.11737894885573 L788.013202341649,391.773253078537 M788.013202341649,391.773253078537 L787.6758339079358,392.50515181038116 M787.6758339079358,392.50515181038116 L787.6559904975288,393.2706016478228 M787.6559904975288,393.2706016478228 L787.9549420785606,394.02511504449956 M787.9549420785606,394.02511504449956 L788.5554768829422,394.72480449442173 M788.5554768829422,394.72480449442173 L789.4227507843991,395.32896570836766 M789.4227507843991,395.32896570836766 L790.5064353621867,395.80239605842604 M790.5064353621867,395.80239605842604 L791.743447124097,396.11750418195635 M791.743447124097,396.11750418195635 L793.0618457148853,396.25590470959787 M793.0618457148853,396.25590470959787 L794.3848615485247,396.20954411490703 M794.3848615485247,396.20954411490703 L795.6354432078474,395.9811128754745 M795.6354432078474,395.9811128754745 L796.7408260875573,395.5839481191059 M796.7408260875573,395.5839481191059 L797.6367066385633,395.0411868897754 M797.6367066385633,395.0411868897754 L798.271022257547,394.38445677276457 M798.271022257547,394.38445677276457 L798.6069830635872,393.65201439228207 M798.6069830635872,393.65201439228207 L798.6251717106654,392.8864491960718 M798.6251717106654,392.8864491960718 L798.3246831756376,392.13228374638305 M798.3246831756376,392.13228374638305 L797.7231205984797,391.43330205706604 M797.7231205984797,391.43330205706604 L796.8554945405654,390.830070065999 M699.353836435,449.84593273595124 L698.2672305391452,449.36234391198093 M698.2672305391452,449.36234391198093 L697.0230768174113,449.0405839900983 M697.0230768174113,449.0405839900983 L695.6936038317581,448.8992747041548 M695.6936038317581,448.8992747041548 L694.3559104129613,448.9466049899002 M694.3559104129613,448.9466049899002 L693.0876249633975,449.1798439883697 M693.0876249633975,449.1798439883697 L691.9623184435027,449.5854653072964 M691.9623184435027,449.5854653072964 L691.0453358326081,450.13998411563 M691.0453358326081,450.13998411563 L690.3899778114287,450.81125599290317 M690.3899778114287,450.81125599290317 L690.0343869553462,451.56033477837684 M690.0343869553462,451.56033477837684 L689.9993708967993,452.3437549284085 M689.9993708967993,452.3437549284085 L690.2870917202624,453.1159801987422 M690.2870917202624,453.1159801987422 L690.8809731672234,453.8321054219114 M690.8809731672234,453.8321054219114 L691.7465889312002,454.4504521123756 M691.7465889312002,454.4504521123756 L692.8336813238618,454.93500747108067 M692.8336813238618,454.93500747108067 L694.0789972676896,455.2575134976337 M694.0789972676896,455.2575134976337 L695.4100848558219,455.39916977831786 M695.4100848558219,455.39916977831786 L696.7494552937944,455.3517200532818 M696.7494552937944,455.3517200532818 L698.0190959535169,455.11792252102657 M698.0190959535169,455.11792252102657 L699.1451383031292,454.7114237850758 M699.1451383031292,454.7114237850758 L700.0620615140726,454.1559140481868 M700.0620615140726,454.1559140481868 L700.7165785140589,453.4837647473358 M700.7165785140589,453.4837647473358 L701.0707466740273,452.7341186636389 M701.0707466740273,452.7341186636389 L701.1040713945874,451.9505790698925 M701.1040713945874,451.9505790698925 L700.8147780957329,451.17870957763495 M700.8147780957329,451.17870957763495 L700.219823348571,450.46332168228395 M700.219823348571,450.46332168228395 L699.353836435,449.84593273595124 M599.5505169930314,510.25494637360123 L598.4606220977646,509.7598787371046 M598.4606220977646,509.7598787371046 L597.2081410498074,509.430475732215 M597.2081410498074,509.430475732215 L595.8657622750584,509.2858149106405 M595.8657622750584,509.2858149106405 L594.5113506799094,509.3342674777099 M594.5113506799094,509.3342674777099 L593.2234969302588,509.57304151111657 M593.2234969302588,509.57304151111657 L592.0768986609182,509.98829442276553 M592.0768986609182,509.98829442276553 L591.1381425727157,510.55598011403276 M591.1381425727157,510.55598011403276 L590.4617889684873,511.24319452522036 M590.4617889684873,511.24319452522036 L590.0872008523161,512.0100674141161 M590.0872008523161,512.0100674141161 L590.0362991303452,512.8120968083665 M590.0362991303452,512.8120968083665 L590.3121665596977,513.602668497872 M590.3121665596977,513.602668497872 L590.8989169164913,514.3358117254649 M590.8989169164913,514.3358117254649 L591.7625473965409,514.9688533277438 M591.7625473965409,514.9688533277438 L592.8529133474838,515.4649265841028 M592.8529133474838,515.4649265841028 L594.1065768369929,515.7950978927228 M594.1065768369929,515.7950978927228 L595.4505941287391,515.9401226930177 M595.4505941287391,515.9401226930177 L596.8067249658036,515.8915464088792 M596.8067249658036,515.8915464088792 L598.0959847908907,515.6521892726788 M598.0959847908907,515.6521892726788 L599.2433538956318,515.2360274908119 M599.2433538956318,515.2360274908119 L600.1820689643034,514.6673153515753 M600.1820689643034,514.6673153515753 L600.8575790914717,513.9791920640636 M600.8575790914717,513.9791920640636 L601.2307145289767,513.2117360907648 M601.2307145289767,513.2117360907648 L601.2798871213499,512.4095829711299 M601.2798871213499,512.4095829711299 L601.0024102665047,511.61937526427096 M601.0024102665047,511.61937526427096 L600.4145388744146,510.8870003411656 M600.4145388744146,510.8870003411656 L599.5505169930314,510.25494637360123 M185.4819938550959,514.9688533277438 L186.34562433514543,514.3358117254647 M186.34562433514543,514.3358117254647 L186.93237469193912,513.602668497872 M186.93237469193912,513.602668497872 L187.20824212129162,512.8120968083665 M187.20824212129162,512.8120968083665 L187.15734039932073,512.010067414116 M187.15734039932073,512.010067414116 L186.78275228314942,511.24319452522036 M186.78275228314942,511.24319452522036 L186.10639867892118,510.55598011403276 M186.10639867892118,510.55598011403276 L185.16764259071863,509.9882944227654 M185.16764259071863,509.9882944227654 L184.0210443213782,509.57304151111657 M184.0210443213782,509.57304151111657 L182.7331905717275,509.3342674777098 M182.7331905717275,509.3342674777098 L181.37877897657845,509.2858149106405 M181.37877897657845,509.2858149106405 L180.03640020182957,509.43047573221486 M180.03640020182957,509.43047573221486 L178.78391915387226,509.7598787371046 M178.78391915387226,509.7598787371046 L177.6940242586054,510.25494637360123 M177.6940242586054,510.25494637360123 L176.83000237722229,510.8870003411656 M176.83000237722229,510.8870003411656 L176.24213098513198,511.61937526427084 M176.24213098513198,511.61937526427084 L175.96465413028696,512.4095829711299 M175.96465413028696,512.4095829711299 L176.0138267226602,513.2117360907648 M176.0138267226602,513.2117360907648 L176.38696216016513,513.9791920640636 M176.38696216016513,513.9791920640636 L177.06247228733355,514.6673153515753 M177.06247228733355,514.6673153515753 L178.001187356005,515.2360274908119 M178.001187356005,515.2360274908119 L179.1485564607462,515.6521892726788 M179.1485564607462,515.6521892726788 L180.4378162858332,515.8915464088791 M180.4378162858332,515.8915464088791 L181.79394712289763,515.9401226930175 M181.79394712289763,515.9401226930175 L183.137964414644,515.7950978927227 M183.137964414644,515.7950978927227 L184.39162790415304,515.4649265841028 M184.39162790415304,515.4649265841028 L185.4819938550959,514.9688533277438 M287.856688372219,576.9342704282349 L288.7179958950861,576.2860069377738 M288.7179958950861,576.2860069377738 L289.2970977229375,575.5352289359873 M289.2970977229375,575.5352289359873 L289.56046334598864,574.7256514422991 M289.56046334598864,574.7256514422991 L289.49291738270654,573.90433886857 M289.49291738270654,573.90433886857 L289.0985192767057,573.1190296968119 M289.0985192767057,573.1190296968119 L288.40035034657996,572.415299477928 M288.40035034657996,572.415299477928 L287.4390339213246,571.8339710729718 M287.4390339213246,571.8339710729718 L286.2704441295473,571.4087408840479 M286.2704441295473,571.4087408840479 L284.9624425476645,571.1642317863264 M284.9624425476645,571.1642317863264 L283.5908862041739,571.1146136349238 M283.5908862041739,571.1146136349238 L282.23536447269834,571.2627490389251 M282.23536447269834,571.2627490389251 L280.9745060714723,571.6000677640728 M280.9745060714723,571.6000677640728 L279.8814793402352,572.1070310751755 M279.8814793402352,572.1070310751755 L279.01975883549267,572.7542755961424 M279.01975883549267,572.7542755961424 L278.4394858773862,573.5042528144103 M278.4394858773862,573.5042528144103 L278.17447238451985,574.3134577241954 M278.17447238451985,574.3134577241954 L278.24025014436404,575.1348985118184 M278.24025014436404,575.1348985118184 L278.63316482844806,575.9208073185367 M278.63316482844806,575.9208073185367 L279.33048837788374,576.6254793860096 M279.33048837788374,576.6254793860096 L280.2917835490893,577.2078714786686 M280.2917835490893,577.2078714786686 L281.46118108288016,577.6340435091632 M281.46118108288016,577.6340435091632 L282.7706419398153,577.879161468407 M282.7706419398153,577.879161468407 L284.14396136383215,577.9289078289593 M284.14396136383215,577.9289078289593 L285.50114603891524,577.7803906347839 M285.50114603891524,577.7803906347839 L286.76320738734097,577.4422803393143 M286.76320738734097,577.4422803393143 L287.856688372219,576.9342704282349 M497.3630619114017,572.1070310751755 L496.2700351801645,571.6000677640728 M496.2700351801645,571.6000677640728 L495.0091767789385,571.2627490389251 M495.0091767789385,571.2627490389251 L493.65365504746296,571.1146136349238 M493.65365504746296,571.1146136349238 L492.28209870397234,571.1642317863264 M492.28209870397234,571.1642317863264 L490.9740971220896,571.4087408840479 M490.9740971220896,571.4087408840479 L489.8055073303122,571.8339710729718 M489.8055073303122,571.8339710729718 L488.84419090505685,572.4152994779281 M488.84419090505685,572.4152994779281 L488.14602197493116,573.1190296968119 M488.14602197493116,573.1190296968119 L487.75162386893027,573.90433886857 M487.75162386893027,573.90433886857 L487.6840779056482,574.7256514422991 M487.6840779056482,574.7256514422991 L487.9474435286993,575.5352289359873 M487.9474435286993,575.5352289359873 L488.52654535655074,576.2860069377738 M488.52654535655074,576.2860069377738 L489.38785287941784,576.9342704282349 M489.38785287941784,576.9342704282349 L490.4813338642959,577.4422803393144 M490.4813338642959,577.4422803393144 L491.7433952127216,577.780390634784 M491.7433952127216,577.780390634784 L493.1005798878046,577.9289078289593 M493.1005798878046,577.9289078289593 L494.47389931182164,577.879161468407 M494.47389931182164,577.879161468407 L495.7833601687567,577.6340435091632 M495.7833601687567,577.6340435091632 L496.95275770254756,577.2078714786686 M496.95275770254756,577.2078714786686 L497.9140528737531,576.6254793860096 M497.9140528737531,576.6254793860096 L498.6113764231887,575.9208073185367 M498.6113764231887,575.9208073185367 L499.0042911072728,575.1348985118184 M499.0042911072728,575.1348985118184 L499.070068867117,574.3134577241955 M499.070068867117,574.3134577241955 L498.80505537425074,573.5042528144103 M498.80505537425074,573.5042528144103 L498.22478241614414,572.7542755961424 M498.22478241614414,572.7542755961424 L497.3630619114017,572.1070310751755 M392.70500890530855,635.454520784785 L391.60900993371826,634.9352317965031 M391.60900993371826,634.9352317965031 L390.33973899081235,634.5897047507444 M390.33973899081235,634.5897047507444 L388.9708214119275,634.4379715647926 M388.9708214119275,634.4379715647926 L387.5816845784016,634.4887963640381 M387.5816845784016,634.4887963640381 L386.2529280681419,634.7392517696919 M386.2529280681419,634.7392517696919 L385.0616186344926,635.1748192523615 M385.0616186344926,635.1748192523615 L384.0769197905474,635.7702875011859 M384.0769197905474,635.7702875011859 L383.3560628436304,636.4911416339145 M383.3560628436304,636.4911416339145 L382.94101251502815,637.2955525761829 M382.94101251502815,637.2955525761829 L382.8560296054977,638.1368507102816 M382.8560296054977,638.1368507102816 L383.10619832770925,638.9661313265632 M383.10619832770925,638.9661313265632 L383.67711387377796,639.7351841843339 M383.67711387377796,639.7351841843339 L384.5357259079038,640.3992293451752 M384.5357259079038,640.3992293451752 L385.63216088807627,640.9196079071254 M385.63216088807627,640.9196079071254 L386.90265553969505,641.2659509388798 M386.90265553969505,641.2659509388798 L388.2732610239366,641.4180845879621 M388.2732610239366,641.4180845879621 L389.66420646475007,641.3671268714108 M389.66420646475007,641.3671268714108 L390.99446233363136,641.1160450237005 M390.99446233363136,641.1160450237005 L392.1866340240948,640.6794916807662 M392.1866340240948,640.6794916807662 L393.1713328676543,640.082920682266 M393.1713328676543,640.082920682266 L393.8913275573224,639.36109954458 M393.8913275573224,639.36109954458 L394.30487852757557,638.5560621753121 M394.30487852757557,638.5560621753121 L394.3880528305641,637.7146311174062 M394.3880528305641,637.7146311174062 L394.13619620356525,636.8857321092485 M394.13619620356525,636.8857321092485 L393.56405694869665,636.1175140976871 M393.56405694869665,636.1175140976871 L392.70500890530855,635.454520784785 M-52.99320590952493,368.43863206177855 L-56.666432492359604,370.6362776677962 M-56.666432492359604,370.6362776677962 L-59.983164326580095,373.0145076635283 M-59.983164326580095,373.0145076635283 L-62.91381982586569,375.55270008505016 M-62.91381982586569,375.55270008505016 L-65.43199311522869,378.22877318826164 M-65.43199311522869,378.22877318826164 L-67.5148567782407,381.019361762655 M-67.5148567782407,381.019361762655 L-69.14330907886131,383.90004700116555 M-69.14330907886131,383.90004700116555 L-70.30219254011342,386.8454953098278 M-70.30219254011342,386.8454953098278 L-70.98044225498148,389.82975448812664 M-70.98044225498148,389.82975448812664 L-71.17115038080624,392.82640843996245 M-71.17115038080624,392.82640843996245 L-70.87176285735029,395.8088559769063 M-70.87176285735029,395.8088559769063 L-70.0841068643964,398.75051692120473 M-70.0841068643964,398.75051692120473 L-68.81433323733143,401.6250941349131 M-68.81433323733143,401.6250941349131 L-67.073001364822,404.40678826829526 M-67.073001364822,404.40678826829526 L-64.8748678430062,407.0705681833259 M-64.8748678430062,407.0705681833259 L-62.23894691261984,409.59236740838793 M-62.23894691261984,409.59236740838793 L-59.188243809638834,411.94935263599564 M-59.188243809638834,411.94935263599564 L-56.93708156512082,413.41846427289164 M-56.93708156512082,413.41846427289164 L347.5750440337712,660.4582736653952 M347.5750440337712,660.4582736653952 L353.02371229587317,663.3902942629958 M353.02371229587317,663.3902942629958 L357.59207418596725,665.3442028735192 M357.59207418596725,665.3442028735192 L362.45301692688486,667.0221719306239 M362.45301692688486,667.0221719306239 L367.56097239346104,668.4080899817587 M367.56097239346104,668.4080899817587 L372.86788259568925,669.4886559596484 M372.86788259568925,669.4886559596484 L378.3236859223526,670.2534678643357 M378.3236859223526,670.2534678643357 L383.8768725428902,670.6951454950861 M383.8768725428902,670.6951454950861 L389.47495099925237,670.8094293375356 M389.47495099925237,670.8094293375356 L395.06494976394373,670.5952359393668 M395.06494976394373,670.5952359393668 L400.5940301915623,670.0546216674318 M400.5940301915623,670.0546216674318 L406.0099108957968,669.1927981087819 M406.0099108957968,669.1927981087819 L411.26147819433925,668.0180654944053 M411.26147819433925,668.0180654944053 L416.29925124662594,666.541712315064 M416.29925124662594,666.541712315064 L421.07584173787956,664.777929413339 M421.07584173787956,664.777929413339 L425.5465158814437,662.743634318277 M425.5465158814437,662.743634318277 L429.66949721786574,660.4582736653952 M429.66949721786574,660.4582736653952 L871.1711503808062,390.8285707674438 M871.1711503808062,390.8285707674438 L388.6222706258184,126.88179404264673 M126.4861118422167,341.65238317622664 L125.67593490066827,340.96774478786017 M125.67593490066827,340.96774478786017 L125.14620958281091,340.1958132015793 M125.14620958281091,340.1958132015793 L124.92125858423594,339.3723289553863 M124.92125858423594,339.3723289553863 L125.01137429135508,338.53539395878164 M125.01137429135508,338.53539395878164 L125.41223881476162,337.72369881878797 M125.41223881476162,337.72369881878797 L126.10515745744078,336.97471731564235 M126.10515745744078,336.97471731564235 L127.0580327752657,336.32300219296985 M127.0580327752657,336.32300219296985 L386.7501981925135,192.36625055220028 M386.7501981925135,192.36625055220028 L388.0017533294208,191.82223406887198 M388.0017533294208,191.82223406887198 L389.4509456787618,191.45948684868904 M389.4509456787618,191.45948684868904 L391.0142535632044,191.29885668949532 M391.0142535632044,191.29885668949532 L392.6016201879994,191.34959668739452 M392.6016201879994,191.34959668739452 L394.12162603073597,191.60877507706712 M394.12162603073597,191.60877507706712 L395.4866437855582,192.06150111834918 M395.4866437855582,192.06150111834918 L396.11056035903795,192.36625055220028 M396.11056035903795,192.36625055220028 L655.9690636067955,336.3230021929699 M655.9690636067955,336.3230021929699 L656.2716710355451,336.50116700914214 M656.2716710355451,336.50116700914214 L657.1535595344817,337.18458909471207 M657.1535595344817,337.18458909471207 L657.7649361730737,337.95558845923347 M657.7649361730737,337.95558845923347 L658.0774093631128,338.77860677129854 M658.0774093631128,338.77860677129854 L658.0763875698892,339.6156230888234 M658.0763875698892,339.6156230888234 L657.7618038359049,340.42793193663374 M657.7618038359049,340.42793193663374 L657.1479983076442,341.17795157195053 M657.1479983076442,341.17795157195053 L656.2633039688703,341.8309276628913 M656.2633039688703,341.8309276628913 L396.5766780587562,494.91674249983964 M396.5766780587562,494.91674249983964 L395.2480875692232,495.5307389484046 M395.2480875692232,495.5307389484046 L393.7086707556272,495.9403030173943 M393.7086707556272,495.9403030173943 L392.0474348543463,496.12169576311237 M392.0474348543463,496.12169576311237 L390.36051397155774,496.06439623417253 M390.36051397155774,496.06439623417253 L388.7455166195876,495.7717276254106 M388.7455166195876,495.7717276254106 L387.29587623394457,495.2606651162943 M387.29587623394457,495.2606651162943 L386.63366876758397,494.91674249983964 M386.63366876758397,494.91674249983964 L126.77015666052819,341.8309276628912 M126.77015666052819,341.8309276628912 L126.4861118422167,341.65238317622664 M-12.26733572359143,393.07851813259606 L-13.351269638382405,393.55184330914597 M-13.351269638382405,393.55184330914597 L-14.588562080688689,393.86688144167977 M-14.588562080688689,393.86688144167977 L-15.90725634880232,394.00525123091205 M-15.90725634880232,394.00525123091205 L-17.230565609651535,393.9589009326054 M-17.230565609651535,393.9589009326054 L-18.481421325773,393.7305204290097 M-18.481421325773,393.7305204290097 L-19.5870429216684,393.3334438960311 M-19.5870429216684,393.3334438960311 L-20.483112948625603,392.7908032542678 M-20.483112948625603,392.7908032542678 L-21.11755779528346,392.13421908036287 M-21.11755779528346,392.13421908036287 L-21.453580104584375,391.40193951296334 M-21.453580104584375,391.40193951296334 L-21.471759007257504,390.6365445429902 M-21.471759007257504,390.6365445429902 L-21.171190112272313,389.8825468350856 M-21.171190112272313,389.8825468350856 L-20.569481289003022,389.1837206581554 M-20.569481289003022,389.1837206581554 L-19.70165162794524,388.58062291116954 M-19.70165162794524,388.58062291116954 L-18.618218636988274,388.1082269578475 M-18.618218636988274,388.1082269578475 L-17.38206899793903,387.7939137478493 M-17.38206899793903,387.7939137478493 L-16.064966641273713,387.6558747389392 M-16.064966641273713,387.6558747389392 L-14.743294430281196,387.70210968414557 M-14.743294430281196,387.70210968414557 L-13.49376001682299,387.9299465261498 M-13.49376001682299,387.9299465261498 L-12.388827149649103,388.3261842382843 M-12.388827149649103,388.3261842382843 L-11.492680581331626,388.8678678519251 M-11.492680581331626,388.8678678519251 L-10.85741145865245,389.52359604053396 M-10.85741145865245,389.52359604053396 L-10.519980886195697,390.25533195937595 M-10.519980886195697,390.25533195937595 L-10.50014648244769,391.0206115705974 M-10.50014648244769,391.0206115705974 L-10.799177749454259,391.77495722353154 M-10.799177749454259,391.77495722353154 L-11.399858352434308,392.474491162869 M-11.399858352434308,392.474491162869 L-12.26733572359143,393.07851813259606 M85.42975921553119,452.1870228191644 L84.34241578741177,452.67147304880103 M84.34241578741177,452.67147304880103 L83.09681533427482,452.9939091159162 M83.09681533427482,452.9939091159162 L81.76542633860618,453.13553467077855 M81.76542633860618,453.13553467077855 L80.42575517229176,453.08809523758407 M80.42575517229176,453.08809523758407 L79.15583201194511,452.85434841888195 M79.15583201194511,452.85434841888195 L78.02954185113248,452.44793786892205 M78.02954185113248,452.44793786892205 L77.1124199513934,451.8925486679915 M77.1124199513934,451.8925486679915 L76.45776492944651,451.22054524808783 M76.45776492944651,451.22054524808783 L76.10352739687704,450.4710619117686 M76.10352739687704,450.4710619117686 L76.07020593684445,449.6876924763909 M76.07020593684445,449.6876924763909 L76.35957487050484,448.91599066086303 M76.35957487050484,448.91599066086303 L76.95467316935753,448.2007582192025 M76.95467316935753,448.2007582192025 L77.82086317704164,447.5835034675304 M77.82086317704164,447.5835034675304 L78.90771988163414,447.10001977902 M78.90771988163414,447.10001977902 L80.15215757823643,446.77832982128416 M80.15215757823643,446.77832982128416 L81.48193124215709,446.63705126479874 M81.48193124215709,446.63705126479874 L82.81992463661106,446.68437125779064 M82.81992463661106,446.68437125779064 L84.08849198314863,446.91755953745593 M84.08849198314863,446.91755953745593 L85.21404599511203,447.32309266369316 M85.21404599511203,447.32309266369316 L86.13122733488257,447.8774909285034 M86.13122733488257,447.8774909285034 L86.78672376813233,448.5486169181308 M86.78672376813233,448.5486169181308 L87.14238464600243,449.29753295288344 M87.14238464600243,449.29753295288344 L87.17739820636791,450.0807829436344 M87.17739820636791,450.0807829436344 L86.88960244894236,450.8528405389671 M86.88960244894236,450.8528405389671 L86.29557792473179,451.5688103150621 M86.29557792473179,451.5688103150621 L85.42975921553119,452.1870228191644 M796.9461928795822,388.5806229111696 L797.81402254064,389.1837206581554 M797.81402254064,389.1837206581554 L798.4157313639091,389.8825468350856 M798.4157313639091,389.8825468350856 L798.7163002588943,390.63654454299024 M798.7163002588943,390.63654454299024 L798.698121356221,391.40193951296334 M798.698121356221,391.40193951296334 L798.3620990469203,392.134219080363 M798.3620990469203,392.134219080363 L797.7276542002626,392.7908032542678 M797.7276542002626,392.7908032542678 L796.8315841733051,393.33344389603116 M796.8315841733051,393.33344389603116 L795.7259625774097,393.73052042900974 M795.7259625774097,393.73052042900974 L794.4751068612886,393.9589009326054 M794.4751068612886,393.9589009326054 L793.1517976004391,394.00525123091205 M793.1517976004391,394.00525123091205 L791.8331033323254,393.8668814416798 M791.8331033323254,393.8668814416798 L790.595810890019,393.55184330914597 M790.595810890019,393.55184330914597 L789.5118769752282,393.0785181325961 M789.5118769752282,393.0785181325961 L788.6443996040712,392.47449116286907 M788.6443996040712,392.47449116286907 L788.0437190010912,391.77495722353166 M788.0437190010912,391.77495722353166 L787.7446877340844,391.0206115705974 M787.7446877340844,391.0206115705974 L787.7645221378325,390.255331959376 M787.7645221378325,390.255331959376 L788.1019527102892,389.523596040534 M788.1019527102892,389.523596040534 L788.7372218329683,388.86786785192515 M788.7372218329683,388.86786785192515 L789.6333684012859,388.32618423828444 M789.6333684012859,388.32618423828444 L790.7383012684597,387.9299465261499 M790.7383012684597,387.9299465261499 L791.9878356819181,387.70210968414557 M791.9878356819181,387.70210968414557 L793.3095078929105,387.6558747389393 M793.3095078929105,387.6558747389393 L794.6266102495758,387.7939137478494 M794.6266102495758,387.7939137478494 L795.8627598886251,388.1082269578475 M795.8627598886251,388.1082269578475 L796.9461928795822,388.5806229111696 M699.423678074595,447.5835034675305 L700.2898680822793,448.2007582192025 M700.2898680822793,448.2007582192025 L700.884966381132,448.91599066086314 M700.884966381132,448.91599066086314 L701.1743353147924,449.687692476391 M701.1743353147924,449.687692476391 L701.1410138547599,450.4710619117686 M701.1410138547599,450.4710619117686 L700.7867763221902,451.2205452480879 M700.7867763221902,451.2205452480879 L700.1321213002434,451.8925486679915 M700.1321213002434,451.8925486679915 L699.2149994005042,452.44793786892217 M699.2149994005042,452.44793786892217 L698.0887092396918,452.85434841888195 M698.0887092396918,452.85434841888195 L696.818786079345,453.0880952375842 M696.818786079345,453.0880952375842 L695.4791149130308,453.1355346707786 M695.4791149130308,453.1355346707786 L694.1477259173621,452.9939091159162 M694.1477259173621,452.9939091159162 L692.902125464225,452.67147304880115 M692.902125464225,452.67147304880115 L691.8147820361057,452.18702281916444 M691.8147820361057,452.18702281916444 L690.9489633269052,451.5688103150622 M690.9489633269052,451.5688103150622 L690.3549388026945,450.8528405389672 M690.3549388026945,450.8528405389672 L690.067143045269,450.0807829436345 M690.067143045269,450.0807829436345 L690.1021566056345,449.29753295288344 M690.1021566056345,449.29753295288344 L690.4578174835046,448.54861691813085 M690.4578174835046,448.54861691813085 L691.1133139167541,447.8774909285034 M691.1133139167541,447.8774909285034 L692.0304952565248,447.32309266369333 M692.0304952565248,447.32309266369333 L693.1560492684882,446.917559537456 M693.1560492684882,446.917559537456 L694.4246166150256,446.68437125779076 M694.4246166150256,446.68437125779076 L695.7626100094797,446.63705126479874 M695.7626100094797,446.63705126479874 L697.0923836734005,446.77832982128416 M697.0923836734005,446.77832982128416 L698.3368213700028,447.10001977902 M698.3368213700028,447.10001977902 L699.423678074595,447.5835034675305 M599.5984860291105,507.9795452898064 L600.4627102854454,508.61146522844695 M600.4627102854454,508.61146522844695 L601.0507222192407,509.3436848931466 M601.0507222192407,509.3436848931466 L601.3282695757259,510.13372513427805 M601.3282695757259,510.13372513427805 L601.2790932873563,510.9357083127228 M601.2790932873563,510.9357083127228 L600.9058800982029,511.7030017485313 M600.9058800982029,511.7030017485313 L600.2302226316524,512.3909793441926 M600.2302226316524,512.3909793441926 L599.2912991612811,512.9595711051054 M599.2912991612811,512.9595711051054 L598.14367270155,513.3756448167173 M598.14367270155,513.3756448167173 L596.8541215578352,513.6149513058426 M596.8541215578352,513.6149513058426 L595.4976824167591,513.6635173120351 M595.4976824167591,513.6635173120351 L594.1533578256272,513.5185231972263 M594.1533578256272,513.5185231972263 L592.8994059624417,513.1884217557339 M592.8994059624417,513.1884217557339 L591.8087873657271,512.6924534907971 M591.8087873657271,512.6924534907971 L590.9449546763233,512.0595458999894 M590.9449546763233,512.0595458999894 L590.3580642810148,511.32655791881643 M590.3580642810148,511.32655791881643 L590.0821270791546,510.5361536893604 M590.0821270791546,510.5361536893604 L590.1330332851678,509.73429423823006 M590.1330332851678,509.73429423823006 L590.5076998194002,508.96758389592117 M590.5076998194002,508.96758389592117 L591.1842011551414,508.28051519076257 M591.1842011551414,508.28051519076257 L592.1231656730488,507.71294989383205 M592.1231656730488,507.71294989383205 L593.2700209548423,507.29778506661694 M593.2700209548423,507.29778506661694 L594.5581653885251,507.0590616893819 M594.5581653885251,507.0590616893819 L595.9128845063908,507.0106194021886 M595.9128845063908,507.0106194021886 L597.2555698315309,507.15524953259853 M597.2555698315309,507.15524953259853 L598.5083387080508,507.48458265837496 M598.5083387080508,507.48458265837496 L599.5984860291105,507.9795452898064 M185.43575388590975,512.692453490797 L184.345135289195,513.1884217557339 M184.345135289195,513.1884217557339 L183.0911834260096,513.5185231972263 M183.0911834260096,513.5185231972263 L181.74685883487788,513.663517312035 M181.74685883487788,513.663517312035 L180.39041969380168,513.6149513058426 M180.39041969380168,513.6149513058426 L179.10086855008683,513.3756448167172 M179.10086855008683,513.3756448167172 L177.95324209035573,512.9595711051054 M177.95324209035573,512.9595711051054 L177.01431861998458,512.3909793441926 M177.01431861998458,512.3909793441926 L176.33866115343383,511.7030017485313 M176.33866115343383,511.7030017485313 L175.96544796428063,510.9357083127228 M175.96544796428063,510.9357083127228 L175.91627167591088,510.13372513427805 M175.91627167591088,510.13372513427805 L176.19381903239602,509.3436848931466 M176.19381903239602,509.3436848931466 L176.7818309661914,508.61146522844683 M176.7818309661914,508.61146522844683 L177.64605522252643,507.9795452898063 M177.64605522252643,507.9795452898063 L178.736202543586,507.48458265837496 M178.736202543586,507.48458265837496 L179.98897142010603,507.15524953259853 M179.98897142010603,507.15524953259853 L181.33165674524614,507.0106194021886 M181.33165674524614,507.0106194021886 L182.6863758631116,507.0590616893819 M182.6863758631116,507.0590616893819 L183.97452029679448,507.29778506661694 M183.97452029679448,507.29778506661694 L185.12137557858796,507.71294989383205 M185.12137557858796,507.71294989383205 L186.0603400964953,508.28051519076257 M186.0603400964953,508.28051519076257 L186.7368414322368,508.96758389592117 M186.7368414322368,508.96758389592117 L187.11150796646908,509.73429423823006 M187.11150796646908,509.73429423823006 L187.1624141724822,510.5361536893603 M187.1624141724822,510.5361536893603 L186.88647697062217,511.3265579188163 M186.88647697062217,511.3265579188163 L186.2995865753136,512.0595458999894 M186.2995865753136,512.0595458999894 L185.43575388590975,512.692453490797 M287.8334772482321,574.6449231627688 L286.73974210947364,575.1528283206859 M286.73974210947364,575.1528283206859 L285.4773884883429,575.4908689093628 M285.4773884883429,575.4908689093628 L284.11989045679246,575.6393554875395 M284.11989045679246,575.6393554875395 L282.74625486305666,575.5896193817089 M282.74625486305666,575.5896193817089 L281.43649347425315,575.3445519542877 M281.43649347425315,575.3445519542877 L280.26682856442466,574.918467793032 M280.26682856442466,574.918467793032 L279.30531474546495,574.3361958052541 M279.30531474546495,574.3361958052541 L278.6078339831837,573.6316690998977 M278.6078339831837,573.6316690998977 L278.2148326202376,572.8459224645187 M278.2148326202376,572.8459224645187 L278.14904369914717,572.0246512381896 M278.14904369914717,572.0246512381896 L278.41412212329163,571.2156134219133 M278.41412212329163,571.2156134219133 L278.9945322692839,570.4657911185142 M278.9945322692839,570.4657911185142 L279.8564542028192,569.8186803317158 M279.8564542028192,569.8186803317158 L280.94973487575584,569.3118217954606 M280.94973487575584,569.3118217954606 L282.21088499379397,568.9745727969706 M282.21088499379397,568.9745727969706 L283.5667193123819,568.8264680169784 M283.5667193123819,568.8264680169784 L284.9385910142185,568.8760759106136 M284.9385910142185,568.8760759106136 L286.2468924604742,569.1205344631073 M286.2468924604742,569.1205344631073 L287.4157492606296,569.545676760417 M287.4157492606296,569.545676760417 L288.37728434832326,570.1268850352219 M288.37728434832326,570.1268850352219 L289.0756108849582,570.830469869614 M289.0756108849582,570.830469869614 L289.4700963539993,571.6156168547277 M289.4700963539993,571.6156168547277 L289.53765429343963,572.4367598641169 M289.53765429343963,572.4367598641169 L289.274224498051,573.2461702742074 M289.274224498051,573.2461702742074 L288.69498601622473,573.9967933790896 M288.69498601622473,573.9967933790896 L287.8334772482321,574.6449231627688 M497.3880870488176,569.8186803317158 L498.2500089823529,570.4657911185142 M498.2500089823529,570.4657911185142 L498.83041912834517,571.2156134219133 M498.83041912834517,571.2156134219133 L499.09549755248975,572.0246512381896 M499.09549755248975,572.0246512381896 L499.02970863139933,572.8459224645187 M499.02970863139933,572.8459224645187 L498.6367072684531,573.6316690998977 M498.6367072684531,573.6316690998977 L497.9392265061719,574.3361958052541 M497.9392265061719,574.3361958052541 L496.97771268721215,574.918467793032 M496.97771268721215,574.918467793032 L495.8080477773837,575.3445519542877 M495.8080477773837,575.3445519542877 L494.49828638858025,575.5896193817089 M494.49828638858025,575.5896193817089 L493.1246507948443,575.6393554875395 M493.1246507948443,575.6393554875395 L491.76715276329395,575.4908689093628 M491.76715276329395,575.4908689093628 L490.50479914216317,575.1528283206859 M490.50479914216317,575.1528283206859 L489.41106400340476,574.6449231627689 M489.41106400340476,574.6449231627689 L488.54955523541213,573.9967933790896 M488.54955523541213,573.9967933790896 L487.9703167535858,573.2461702742074 M487.9703167535858,573.2461702742074 L487.70688695819723,572.4367598641169 M487.70688695819723,572.4367598641169 L487.7744448976376,571.6156168547277 M487.7744448976376,571.6156168547277 L488.16893036667864,570.830469869614 M488.16893036667864,570.830469869614 L488.8672569033136,570.126885035222 M488.8672569033136,570.126885035222 L489.8287919910072,569.545676760417 M489.8287919910072,569.545676760417 L490.9976487911626,569.1205344631073 M490.9976487911626,569.1205344631073 L492.30595023741836,568.8760759106136 M492.30595023741836,568.8760759106136 L493.67782193925495,568.8264680169785 M493.67782193925495,568.8264680169785 L495.0336562578429,568.9745727969706 M495.0336562578429,568.9745727969706 L496.2948063758811,569.3118217954607 M496.2948063758811,569.3118217954607 L497.3880870488176,569.8186803317158 M392.7059598499726,633.1532555305845 L393.56520812533483,633.8161155439082 M393.56520812533483,633.8161155439082 L394.13748084466755,634.5841791479842 M394.13748084466755,634.5841791479842 L394.3893963594685,635.4129116102459 M394.3893963594685,635.4129116102459 L394.30620288543895,636.2541736659748 M394.30620288543895,636.2541736659748 L393.8925557215623,637.059049400969 M393.8925557215623,637.059049400969 L393.17239335260393,637.7807256608111 M393.17239335260393,637.7807256608111 L392.18746504781984,638.3771769551522 M392.18746504781984,638.3771769551522 L390.99501545055944,638.8136427218599 M390.99501545055944,638.8136427218599 L389.66444942134143,639.064674208047 M389.66444942134143,639.064674208047 L388.2731796417689,639.1156217042715 M388.2731796417689,639.1156217042715 L386.9022545708052,638.9635185685277 M386.9022545708052,638.9635185685277 L385.6314637188291,638.6172450101309 M385.6314637188291,638.6172450101309 L384.5347731890274,638.0969708513344 M384.5347731890274,638.0969708513344 L383.67596112615524,637.433058951901 M383.67596112615524,637.433058951901 L383.1049126823714,636.6641604770055 M383.1049126823714,636.6641604770055 L382.8546858627357,635.8350463921686 M382.8546858627357,635.8350463921686 L382.9396887863133,634.9939172645154 M382.9396887863133,634.9939172645154 L383.3548360074022,634.1896679766357 M383.3548360074022,634.1896679766357 L384.07586103188294,633.4689587549997 M384.07586103188294,633.4689587549997 L385.0607893370531,632.8736102457449 M385.0607893370531,632.8736102457449 L386.25237627922627,632.4381303687613 M386.25237627922627,632.4381303687613 L387.58144225095936,632.1877253447468 M387.58144225095936,632.1877253447468 L388.97090258023735,632.1369107700962 M388.97090258023735,632.1369107700962 L390.3401389554658,632.2886134320474 M390.3401389554658,632.2886134320474 L391.6097055319802,632.6340709760489 M391.6097055319802,632.6340709760489 L392.7059598499726,633.1532555305845 M871.0639172964161,393.0785181325961 L871.1711503808062,390.8285707674438 M-59.088314997281714,414.20397808381693 L-59.188243809638834,411.94935263599564 M-56.83762635257813,415.67341365898085 L-56.93708156512082,413.41846427289164 M347.58465167980523,662.7649979333527 L347.5750440337712,660.4582736653952 M429.6598895718317,662.7649979333527 L429.66949721786574,660.4582736653952 M353.0320491927537,665.6976008263762 L353.02371229587317,663.3902942629958 M127.11553205815221,338.5606959084589 L127.0580327752657,336.32300219296985 M386.75059789198923,194.5703254225222 L386.7501981925135,192.36625055220028 M126.54379820202018,343.8912865292664 L126.4861118422167,341.65238317622664 M126.82778256589029,344.0698714979023 L126.77015666052819,341.8309276628912 M386.6341197692978,497.1893651303065 L386.63366876758397,494.91674249983964 M387.2961770714299,497.5333610911609 L387.29587623394457,495.2606651162943 M396.57487405190085,497.1893651303065 L396.5766780587562,494.91674249983964 M656.2044040935746,344.0698714979023 L656.2633039688703,341.8309276628913 M656.2128319661063,338.7389012039571 L656.2716710355451,336.50116700914214 M655.9102931532937,338.560695908459 L655.9690636067955,336.3230021929699 M396.10896156113495,194.57032542252227 L396.11056035903795,192.36625055220028 M395.48517828971745,194.26550288759682 L395.4866437855582,192.06150111834918 M-12.178209532762253,395.3289657083676 L-12.26733572359143,393.07851813259606 M85.49795232043658,454.4504521123755 L85.42975921553119,452.1870228191644 M796.8554945405654,390.830070065999 L796.9461928795822,388.5806229111696 M699.353836435,449.84593273595124 L699.423678074595,447.5835034675305 M599.5505169930314,510.25494637360123 L599.5984860291105,507.9795452898064 M185.4819938550959,514.9688533277438 L185.43575388590975,512.692453490797 M287.856688372219,576.9342704282349 L287.8334772482321,574.6449231627688 M497.3630619114017,572.1070310751755 L497.3880870488176,569.8186803317158 M392.70500890530855,635.454520784785 L392.7059598499726,633.1532555305845" stroke="black"  stroke-width="4"  fill="red"/></svg>